<svg width="33" height="32" viewBox="0 0 33 32" fill="none" xmlns="http://www.w3.org/2000/svg">
<path fill-rule="evenodd" clip-rule="evenodd" d="M20.3745 21.7596C18.5683 23.1637 16.2986 23.9998 13.8337 23.9998C7.94262 23.9998 3.16699 19.2242 3.16699 13.3332C3.16699 7.44213 7.94262 2.6665 13.8337 2.6665C19.7247 2.6665 24.5003 7.44213 24.5003 13.3332C24.5003 15.7981 23.6642 18.0678 22.2601 19.874L29.4431 27.057C29.9638 27.5777 29.9638 28.4219 29.4431 28.9426C28.9224 29.4633 28.0782 29.4633 27.5575 28.9426L20.3745 21.7596ZM21.8337 13.3332C21.8337 17.7514 18.2519 21.3332 13.8337 21.3332C9.41538 21.3332 5.83366 17.7514 5.83366 13.3332C5.83366 8.91489 9.41538 5.33317 13.8337 5.33317C18.2519 5.33317 21.8337 8.91489 21.8337 13.3332Z" fill="#777E91"/>
</svg>
